<svg width="793" height="793" viewBox="0 0 793 793" fill="none" xmlns="http://www.w3.org/2000/svg">
<path d="M379.046 11.2001C386.68 -2.44719 406.32 -2.44721 413.954 11.2001L461.926 96.9507C467.422 106.776 479.942 110.13 489.614 104.37L574.034 54.0933C587.47 46.0918 604.478 55.9114 604.266 71.5476L602.935 169.796C602.783 181.053 611.947 190.217 623.204 190.065L721.452 188.734C737.089 188.522 746.908 205.53 738.907 218.966L688.63 303.386C682.87 313.058 686.224 325.578 696.049 331.074L781.8 379.046C795.447 386.68 795.447 406.32 781.8 413.954L696.049 461.926C686.224 467.422 682.87 479.942 688.63 489.614L738.907 574.034C746.908 587.47 737.089 604.478 721.452 604.266L623.204 602.935C611.947 602.783 602.783 611.947 602.935 623.204L604.266 721.452C604.478 737.089 587.47 746.908 574.034 738.907L489.614 688.63C479.942 682.87 467.422 686.224 461.926 696.049L413.954 781.8C406.32 795.447 386.68 795.447 379.046 781.8L331.074 696.049C325.578 686.224 313.058 682.87 303.386 688.63L218.966 738.907C205.53 746.908 188.522 737.089 188.734 721.452L190.065 623.204C190.217 611.947 181.053 602.783 169.796 602.935L71.5477 604.266C55.9114 604.478 46.0918 587.47 54.0933 574.034L104.37 489.614C110.13 479.942 106.776 467.422 96.9507 461.926L11.2001 413.954C-2.44719 406.32 -2.44721 386.68 11.2001 379.046L96.9507 331.074C106.776 325.578 110.13 313.058 104.37 303.386L54.0933 218.966C46.0918 205.53 55.9114 188.522 71.5476 188.734L169.796 190.065C181.053 190.217 190.217 181.053 190.065 169.796L188.734 71.5477C188.522 55.9114 205.53 46.0918 218.966 54.0933L303.386 104.37C313.058 110.13 325.578 106.776 331.074 96.9507L379.046 11.2001Z" fill="#2E3366"/>
</svg>
